<?xml version="1.0" encoding="UTF-8"?>
<svg id="_レイヤー_2" xmlns="http://www.w3.org/2000/svg" version="1.1" viewBox="0 0 184.89 32.25">
  <!-- Generator: Adobe Illustrator 29.8.1, SVG Export Plug-In . SVG Version: 2.1.1 Build 2)  -->
  <defs>
    <style>
      .st0 {
        fill: #08162e;
      }

      .st1 {
        fill: #dcd83e;
      }
    </style>
  </defs>
  <g id="logo_EN">
    <g>
      <path class="st1" d="M27.36,15.76c-1.03,5.37-5.77,9.44-11.44,9.44-1.71,0-3.35-.36-4.9-1.08l-.13-.08c-.53-.42-4.68-2.11-6.07-6.97l-.04-.12s-.02-.09-.04-.13l-.03.03-.23-1.15c-.13-.72-.2-1.44-.2-2.15C4.28,7.13,9.5,1.9,15.93,1.9c1.15,0,2.26.17,3.31.48-1.69-.75-3.57-1.17-5.54-1.17-7.56,0-13.7,6.14-13.7,13.7s6.14,13.69,13.69,13.69,13.23-5.69,13.67-12.84Z"/>
      <g>
        <polygon class="st0" points="14.65 12.78 17.11 15.68 17.75 15.13 15.29 12.24 14.65 12.78"/>
        <path class="st0" d="M29.1,2.94c-2.44.04-5.41,1.22-8.07,3.42l-6.62,1.4s-.1.03-.14.07l-1.06.9c-.1.08-.13.21-.07.28l3.36,1.78c-.33.4-.65.82-.96,1.24l2.43,2.83,1-.55c.12-.08.23-.15.35-.22l1.23,3.67c.06.07.19.06.28-.02l1.06-.9s.08-.08.09-.13l2.55-6.47h0c2.53-2.25,4.14-4.93,4.57-7.29h0Z"/>
      </g>
      <polygon class="st0" points="14.04 15.8 15.16 14.05 14.52 13.28 10.56 18.57 16.62 15.77 15.97 15 14.04 15.8"/>
    </g>
    <g>
      <path class="st0" d="M46.09,22.35l-3.42-13.58v14.71c0,.81-.18,1.42-.54,1.83s-.85.61-1.45.61-1.06-.2-1.42-.6c-.37-.4-.55-1.01-.55-1.84V6.62c0-.93.24-1.56.73-1.88.49-.32,1.14-.49,1.96-.49h1.34c.8,0,1.39.07,1.75.22.36.15.63.41.81.79.17.38.37.99.6,1.85l3.1,11.67,3.1-11.67c.22-.85.42-1.47.6-1.85.17-.38.44-.64.81-.79.36-.14.95-.22,1.75-.22h1.34c.82,0,1.48.16,1.96.49.48.32.73.95.73,1.88v16.86c0,.81-.18,1.42-.54,1.83s-.85.61-1.46.61c-.57,0-1.04-.2-1.41-.61s-.55-1.02-.55-1.83v-14.71l-3.42,13.58c-.22.88-.41,1.53-.55,1.94s-.4.79-.78,1.13-.9.51-1.57.51c-.5,0-.93-.11-1.28-.33s-.62-.5-.81-.83c-.19-.34-.35-.71-.46-1.13s-.22-.84-.34-1.29h-.03Z"/>
      <path class="st0" d="M74.49,18.83h-7.76c0,.9.19,1.7.54,2.38.35.69.82,1.21,1.41,1.55.59.35,1.23.52,1.94.52.47,0,.91-.06,1.3-.17s.77-.29,1.14-.52.71-.49,1.02-.76.71-.64,1.21-1.11c.2-.17.49-.26.87-.26.41,0,.74.11.99.33s.38.54.38.94c0,.36-.14.78-.42,1.26s-.71.94-1.27,1.38c-.57.44-1.28.81-2.14,1.1s-1.84.44-2.96.44c-2.55,0-4.53-.73-5.95-2.18s-2.12-3.43-2.12-5.92c0-1.17.17-2.26.52-3.26.35-1,.86-1.86,1.53-2.58s1.49-1.27,2.47-1.65,2.06-.57,3.26-.57c1.55,0,2.88.33,3.99.98s1.94,1.5,2.49,2.54c.55,1.04.83,2.09.83,3.17,0,1-.29,1.64-.86,1.94-.57.3-1.38.44-2.41.44h0ZM66.73,16.58h7.19c-.1-1.36-.46-2.37-1.1-3.05-.63-.67-1.47-1.01-2.51-1.01s-1.8.34-2.43,1.03-1.02,1.69-1.16,3.03h.01Z"/>
      <path class="st0" d="M91.98,23.66v-.39c-.53.61-1.06,1.11-1.58,1.49s-1.08.67-1.69.87-1.27.3-1.98.3c-.95,0-1.83-.2-2.64-.6s-1.51-.98-2.1-1.72c-.59-.75-1.04-1.62-1.34-2.63-.31-1.01-.46-2.1-.46-3.27,0-2.48.61-4.41,1.82-5.8,1.21-1.38,2.81-2.08,4.78-2.08,1.14,0,2.11.2,2.89.59.79.39,1.55,1,2.3,1.81v-5.86c0-.81.16-1.43.49-1.85.32-.42.79-.62,1.39-.62s1.06.19,1.39.57c.32.38.49.95.49,1.69v17.5c0,.76-.17,1.32-.52,1.7-.35.38-.8.57-1.35.57s-.99-.2-1.34-.59-.53-.95-.53-1.68h-.02ZM84.17,17.83c0,1.08.17,1.99.5,2.75s.79,1.33,1.37,1.71c.58.38,1.22.57,1.9.57s1.33-.18,1.91-.54,1.04-.92,1.38-1.67.52-1.69.52-2.81c0-1.06-.17-1.96-.52-2.73-.34-.76-.81-1.34-1.4-1.74-.59-.4-1.23-.6-1.93-.6s-1.38.21-1.95.62-1.02,1-1.33,1.77c-.32.77-.47,1.66-.47,2.68h.02Z"/>
      <path class="st0" d="M101.72,7.94c-.55,0-1.03-.17-1.42-.51s-.59-.82-.59-1.44c0-.56.2-1.03.6-1.39s.87-.54,1.4-.54.97.17,1.37.49c.4.33.6.81.6,1.44s-.19,1.09-.58,1.43c-.39.34-.85.52-1.38.52ZM103.68,12.04v11.47c0,.79-.19,1.39-.57,1.8s-.86.61-1.44.61-1.05-.21-1.42-.62-.55-1.01-.55-1.79v-11.35c0-.78.18-1.38.55-1.77.36-.4.83-.6,1.42-.6s1.06.2,1.44.6c.38.4.57.95.57,1.66h0Z"/>
      <path class="st0" d="M110.58,12.26l3.21,9.01,3.46-9.4c.27-.76.54-1.29.8-1.61s.66-.47,1.19-.47c.5,0,.93.17,1.29.51.35.34.53.73.53,1.18,0,.17-.03.38-.09.61s-.14.45-.22.65-.18.44-.28.7l-3.81,9.45c-.11.27-.25.62-.41,1.03-.17.42-.36.77-.57,1.07s-.46.53-.77.69c-.3.17-.68.25-1.11.25-.56,0-1.01-.13-1.34-.38-.33-.26-.58-.54-.74-.84-.16-.3-.43-.91-.81-1.81l-3.78-9.35c-.09-.23-.18-.46-.27-.7s-.17-.47-.23-.71-.09-.45-.09-.62c0-.27.08-.54.25-.81s.39-.48.68-.65.61-.25.94-.25c.66,0,1.11.19,1.36.57s.52,1.01.82,1.9v-.02Z"/>
      <path class="st0" d="M134.99,18.83h-7.76c0,.9.19,1.7.54,2.38.35.69.82,1.21,1.41,1.55.59.35,1.23.52,1.94.52.47,0,.91-.06,1.3-.17s.77-.29,1.14-.52.71-.49,1.02-.76.71-.64,1.21-1.11c.2-.17.49-.26.87-.26.41,0,.74.11.99.33s.38.54.38.94c0,.36-.14.78-.42,1.26s-.71.94-1.27,1.38c-.57.44-1.28.81-2.14,1.1s-1.84.44-2.96.44c-2.55,0-4.53-.73-5.95-2.18s-2.12-3.43-2.12-5.92c0-1.17.17-2.26.52-3.26s.86-1.86,1.53-2.58,1.49-1.27,2.47-1.65c.98-.38,2.06-.57,3.26-.57,1.55,0,2.88.33,3.99.98s1.94,1.5,2.49,2.54.83,2.09.83,3.17c0,1-.29,1.64-.86,1.94-.57.3-1.38.44-2.41.44h0ZM127.22,16.58h7.19c-.1-1.36-.46-2.37-1.1-3.05-.63-.67-1.47-1.01-2.51-1.01s-1.8.34-2.43,1.03-1.02,1.69-1.16,3.03h0Z"/>
      <path class="st0" d="M145.54,20.2v3.31c0,.8-.19,1.41-.57,1.81s-.86.6-1.44.6-1.04-.2-1.41-.61-.55-1.01-.55-1.8v-11.05c0-1.78.64-2.67,1.93-2.67.66,0,1.13.21,1.42.62.29.42.45,1.03.48,1.85.47-.81.96-1.43,1.46-1.85s1.17-.62,2-.62,1.64.21,2.43.62c.79.42,1.18.97,1.18,1.66,0,.49-.17.88-.5,1.2s-.7.47-1.08.47c-.15,0-.5-.09-1.05-.27-.56-.18-1.05-.27-1.47-.27-.58,0-1.06.15-1.42.46s-.65.76-.86,1.36c-.2.6-.34,1.32-.42,2.14-.08.83-.12,1.84-.12,3.03h0Z"/>
      <path class="st0" d="M167.42,20.73c0,1.1-.27,2.03-.8,2.81-.53.78-1.32,1.37-2.36,1.77s-2.31.6-3.8.6-2.65-.22-3.66-.65c-1.02-.44-1.77-.98-2.25-1.63-.49-.65-.73-1.31-.73-1.97,0-.44.15-.81.46-1.12.31-.31.7-.47,1.18-.47.42,0,.74.1.96.31.22.2.44.49.64.86.41.71.89,1.23,1.46,1.58s1.34.52,2.32.52c.79,0,1.45-.18,1.96-.53s.76-.76.76-1.21c0-.7-.26-1.21-.79-1.53-.53-.32-1.4-.62-2.61-.92-1.37-.34-2.48-.7-3.34-1.07s-1.54-.87-2.06-1.48-.77-1.36-.77-2.25c0-.79.24-1.55.71-2.25.48-.71,1.18-1.27,2.1-1.69.93-.42,2.04-.63,3.35-.63,1.03,0,1.95.11,2.77.32s1.5.5,2.05.86.96.76,1.25,1.19c.29.44.43.86.43,1.28,0,.46-.15.83-.46,1.12-.31.29-.74.44-1.3.44-.41,0-.75-.12-1.04-.35s-.61-.58-.98-1.05c-.3-.39-.65-.7-1.06-.93s-.96-.35-1.66-.35-1.31.15-1.79.46-.71.69-.71,1.14c0,.42.17.76.52,1.02s.82.49,1.41.66,1.4.39,2.44.64c1.23.3,2.24.66,3.02,1.08s1.37.91,1.77,1.48c.4.57.6,1.21.6,1.94h0Z"/>
      <path class="st0" d="M181.85,18.83h-7.76c0,.9.19,1.7.54,2.38.35.69.82,1.21,1.41,1.55.59.35,1.23.52,1.94.52.47,0,.91-.06,1.3-.17s.77-.29,1.14-.52c.37-.24.71-.49,1.02-.76s.71-.64,1.21-1.11c.21-.17.49-.26.87-.26.41,0,.74.11.99.33s.38.54.38.94c0,.36-.14.78-.42,1.26s-.71.94-1.27,1.38c-.57.44-1.28.81-2.14,1.1s-1.84.44-2.96.44c-2.55,0-4.53-.73-5.95-2.18-1.41-1.45-2.12-3.43-2.12-5.92,0-1.17.17-2.26.52-3.26s.86-1.86,1.53-2.58,1.49-1.27,2.47-1.65,2.06-.57,3.26-.57c1.55,0,2.88.33,3.99.98s1.94,1.5,2.49,2.54.83,2.09.83,3.17c0,1-.29,1.64-.86,1.94-.57.3-1.38.44-2.41.44h0ZM174.09,16.58h7.2c-.1-1.36-.46-2.37-1.1-3.05-.63-.67-1.47-1.01-2.51-1.01s-1.8.34-2.43,1.03c-.63.68-1.02,1.69-1.16,3.03Z"/>
    </g>
  </g>
</svg>